<?xml version="1.0" standalone="no"?>
<!DOCTYPE svg PUBLIC "-//W3C//DTD SVG 20010904//EN"
 "http://www.w3.org/TR/2001/REC-SVG-20010904/DTD/svg10.dtd">
<svg version="1.0" xmlns="http://www.w3.org/2000/svg"
 width="512.000000pt" height="512.000000pt" viewBox="0 0 512.000000 512.000000"
 preserveAspectRatio="xMidYMid meet">
<metadata>
Created by potrace 1.14, written by Peter Selinger 2001-2017
</metadata>
<g transform="translate(0.000000,512.000000) scale(0.100000,-0.100000)"
fill="#000000" stroke="none">
<path d="M1085 4949 c-44 -25 -45 -29 -45 -335 l0 -292 -197 -4 c-192 -3 -199
-4 -241 -29 -47 -29 -93 -86 -111 -138 -8 -25 -11 -525 -11 -1911 0 -2082 -5
-1929 67 -2003 75 -78 -33 -72 1299 -72 l1191 0 49 30 c73 46 106 106 112 205
l5 80 626 0 c589 0 628 2 667 19 48 22 95 66 121 112 17 33 18 102 21 1617 2
1724 6 1609 -53 1687 -15 18 -50 45 -78 60 l-51 25 -627 0 -626 0 -5 79 c-5
93 -34 152 -96 194 -59 42 -92 47 -284 47 l-178 0 0 295 0 296 -25 24 c-15 16
-35 25 -56 25 -27 0 -48 -16 -135 -102 l-104 -102 -105 103 c-103 101 -106
104 -142 98 -31 -5 -55 -24 -130 -99 -50 -51 -96 -93 -102 -93 -6 0 -56 44
-111 99 -97 96 -101 98 -137 93 -30 -5 -55 -24 -128 -96 -49 -50 -94 -94 -98
-98 -4 -4 -51 37 -105 90 -100 100 -136 119 -177 96z"/>
</g>
</svg>
